# xmcd
#
# Track frame offsets: 
#        150
#        9138
#        47297
#        96505
#        128396
#        161376
#        174770
#        205631
#
# Disc length: 3311 seconds
#
# Revision: 1
# Processed by: cddbd v1.5.2PL0 Copyright (c) Steve Scherf et al.
# Submitted via: ExactAudioCopyFreeDBPlugin 1.0
#
DISCID=490ced08
DTITLE=Be'lakor - Vessels
DYEAR=2016
DGENRE=Melodic Death Metal
TTITLE0=Luma
TTITLE1=An Ember's Arc
TTITLE2=Withering Strands
TTITLE3=Roots To Sever
TTITLE4=Whelm
TTITLE5=A Thread Dissolves
TTITLE6=Grasping Light
TTITLE7=The Smoke Of Many Fires
EXTD=
EXTT0=
EXTT1=
EXTT2=
EXTT3=
EXTT4=
EXTT5=
EXTT6=
EXTT7=
PLAYORDER=
